<svg width="22" height="23" viewBox="0 0 22 23" fill="none" xmlns="http://www.w3.org/2000/svg">
<path d="M18.5986 3.35059C16.5527 1.2998 13.8281 0.171875 10.9326 0.171875C4.95605 0.171875 0.0927734 5.03516 0.0927734 11.0117C0.0927734 12.9209 0.59082 14.7861 1.53809 16.4316L0 22.0469L5.74707 20.5381C7.3291 21.4023 9.11133 21.8564 10.9277 21.8564H10.9326C16.9043 21.8564 21.875 16.9932 21.875 11.0166C21.875 8.12109 20.6445 5.40137 18.5986 3.35059V3.35059ZM10.9326 20.0303C9.31152 20.0303 7.72461 19.5957 6.34277 18.7754L6.01562 18.5801L2.60742 19.4736L3.51562 16.1484L3.30078 15.8066C2.39746 14.3711 1.92383 12.7158 1.92383 11.0117C1.92383 6.0459 5.9668 2.00293 10.9375 2.00293C13.3447 2.00293 15.6055 2.94043 17.3047 4.64453C19.0039 6.34863 20.0488 8.60938 20.0439 11.0166C20.0439 15.9873 15.8984 20.0303 10.9326 20.0303V20.0303ZM15.874 13.2822C15.6055 13.1455 14.2725 12.4912 14.0234 12.4033C13.7744 12.3105 13.5938 12.2666 13.4131 12.54C13.2324 12.8135 12.7148 13.4189 12.5537 13.6045C12.3975 13.7852 12.2363 13.8096 11.9678 13.6729C10.376 12.877 9.33105 12.252 8.28125 10.4502C8.00293 9.97168 8.55957 10.0059 9.07715 8.9707C9.16504 8.79004 9.12109 8.63379 9.05273 8.49707C8.98437 8.36035 8.44238 7.02734 8.21777 6.48535C7.99805 5.95801 7.77344 6.03125 7.60742 6.02148C7.45117 6.01172 7.27051 6.01172 7.08984 6.01172C6.90918 6.01172 6.61621 6.08008 6.36719 6.34863C6.11816 6.62207 5.41992 7.27637 5.41992 8.60938C5.41992 9.94238 6.3916 11.2314 6.52344 11.4121C6.66016 11.5928 8.43262 14.3271 11.1523 15.5039C12.8711 16.2461 13.5449 16.3096 14.4043 16.1826C14.9268 16.1045 16.0059 15.5283 16.2305 14.8936C16.4551 14.2588 16.4551 13.7168 16.3867 13.6045C16.3232 13.4824 16.1426 13.4141 15.874 13.2822Z" fill="#F1FFF3"/>
</svg>
